<svg width="438" height="216" viewBox="0 0 438 216" fill="none" xmlns="http://www.w3.org/2000/svg">
<g filter="url(#filter0_d_28_9)">
<g filter="url(#filter1_d_28_9)">
<path d="M112.231 169.252C112.231 169.252 96.4253 124.9 117.973 107.442C127.344 99.855 137.432 94.4775 145.119 89.2283C147.461 87.6285 162.366 83.0903 157.272 93.6023C151.677 105.138 126.247 115.799 129.465 122.956C130.702 125.708 158.715 102.636 161.408 97.3013C163.477 93.2063 157.982 74.3558 161.178 58.8398C162.346 53.1653 163.477 49.2953 166.844 48.6585C166.844 48.6585 165.531 41.2605 169.453 38.952C171.747 37.5998 175.296 38.34 175.296 42.6308C175.296 42.6308 179.959 41.535 180.57 46.3095C181.421 52.947 184.32 95.274 180.787 102.434C165.62 133.139 113.607 157.322 112.231 169.252Z" fill="url(#paint0_linear_28_9)"/>
</g>
<path d="M175.296 42.6308C175.296 42.6308 175.013 42.6803 174.603 42.9796C174.196 43.2766 173.689 43.8323 173.255 44.6693C172.369 46.3478 171.932 49.1018 171.851 52.4003C171.832 54.0631 171.873 55.8451 172.005 57.7711C172.103 59.7128 172.207 61.7603 172.315 63.8776C172.484 68.1143 172.638 72.6368 172.612 77.1931C172.564 79.4746 172.534 81.7426 172.235 84.0758C172.137 84.6923 172.064 85.2053 171.789 86.0086C171.711 86.2088 171.498 86.6228 171.331 86.8793C171.171 87.1381 171.006 87.3743 170.842 87.6083C170.183 88.5286 169.501 89.3543 168.822 90.1688C166.064 93.3638 163.388 96.1898 161.009 98.5366C158.635 100.888 156.624 102.807 155.172 104.099C153.712 105.388 152.822 106.045 152.822 106.045C152.822 106.045 153.628 105.28 154.919 103.824C156.223 102.382 158.069 100.305 160.21 97.7468C162.331 95.1728 164.862 92.2118 167.356 88.9043C167.977 88.0853 168.61 87.2371 169.167 86.3776C169.306 86.1638 169.438 85.9501 169.555 85.7408C169.665 85.5316 169.711 85.4618 169.832 85.1513C169.865 84.8971 169.958 84.3098 169.977 83.8171C170.094 81.7156 170.038 79.4498 169.971 77.2133C169.912 74.9588 169.849 72.7066 169.791 70.4903C169.752 68.2606 169.713 66.0713 169.676 63.9518C169.68 61.8278 169.683 59.7736 169.685 57.8273C169.728 55.8698 169.823 53.9731 170.029 52.2518C170.307 50.5238 170.564 48.9398 171.069 47.5943C171.546 46.2488 172.111 45.1238 172.731 44.3071C173.338 43.4791 174.022 43.0088 174.516 42.8153C175.013 42.6106 175.296 42.6308 175.296 42.6308Z" fill="white"/>
<path d="M157.272 93.6023C157.272 93.6023 157.205 93.7508 157.079 94.032C156.962 94.311 156.745 94.7115 156.435 95.2065C155.822 96.1853 154.817 97.4858 153.495 98.9055C152.184 100.341 150.568 101.907 148.787 103.507C147.019 105.125 145.058 106.736 143.121 108.365C141.16 109.949 139.197 111.533 137.358 113.015C135.534 114.5 133.837 115.884 132.461 117.144C131.79 117.785 131.161 118.37 130.676 118.94C130.171 119.504 129.803 120.026 129.534 120.494C129.309 120.969 129.192 121.381 129.19 121.678C129.218 121.977 129.233 122.139 129.233 122.139C129.233 122.139 129.166 121.988 129.038 121.703C128.949 121.399 128.895 120.908 129.018 120.301C129.166 119.716 129.406 119.012 129.814 118.303C130.197 117.569 130.708 116.811 131.306 116.024C133.692 112.851 137.492 109.355 141.412 106.121C143.399 104.531 145.379 102.953 147.279 101.536C149.173 100.123 150.943 98.8043 152.457 97.677C153.963 96.534 155.205 95.5733 156.026 94.833C156.841 94.1153 157.272 93.6023 157.272 93.6023Z" fill="white"/>
<path d="M166.846 48.6584C166.846 48.6584 166.675 51.3877 166.424 55.4782C166.361 56.4997 166.294 57.6067 166.272 58.7812C166.246 59.9534 166.188 61.1864 166.183 62.4667C166.207 65.0317 166.166 67.743 166.303 70.4812C166.56 75.9442 166.818 81.4072 167.013 85.5045C167.102 87.5565 167.148 89.2845 167.165 90.504C167.143 91.773 164.266 93.6157 164.266 93.6157L164.392 92.1892C164.392 92.1892 164.446 91.548 164.543 90.4297C164.604 89.2552 164.684 87.57 164.738 85.5202C164.836 81.4185 164.964 75.9487 165.091 70.479C165.169 67.7497 165.328 64.9979 165.447 62.4374C165.516 61.1572 165.646 59.9174 165.733 58.7452C165.817 57.5707 165.941 56.4659 166.058 55.4467C166.532 51.3742 166.846 48.6584 166.846 48.6584Z" fill="white"/>
<path d="M146.395 93.285C146.395 93.285 148.441 88.2203 153.365 87.795C156.966 87.4868 156.659 91.854 156.659 91.854C156.659 91.854 154.899 95.751 149.153 97.3013L146.395 93.285Z" fill="white"/>
<path d="M146.395 93.285C146.395 93.285 150.742 93.186 149.153 97.3035L146.395 93.285Z" fill="white"/>
<g filter="url(#filter2_d_28_9)">
<path d="M95.7581 169.252C95.7581 169.252 111.562 124.9 90.0121 107.442C80.6456 99.855 70.5554 94.4775 62.8681 89.2283C60.5259 87.6285 45.6214 83.0903 50.7174 93.6023C56.3074 105.138 81.7397 115.799 78.5222 122.956C77.2851 125.708 49.2722 102.636 46.5791 97.3013C44.5121 93.2063 50.0046 74.3558 46.8087 58.8398C45.6387 53.1653 44.5121 49.2953 41.1407 48.6585C41.1407 48.6585 42.4537 41.2605 38.5364 38.952C36.2376 37.5998 32.6907 38.34 32.6907 42.6308C32.6907 42.6308 28.0281 41.535 27.4149 46.3073C26.5634 52.947 23.6644 95.274 27.2004 102.434C42.3671 133.139 94.3779 157.322 95.7581 169.252Z" fill="url(#paint1_linear_28_9)"/>
</g>
<path d="M32.6907 42.6308C32.6907 42.6308 32.9745 42.6106 33.4707 42.8153C33.9625 43.0088 34.6472 43.4791 35.256 44.3071C35.8757 45.1238 36.4412 46.2488 36.9178 47.5943C37.4205 48.9398 37.6783 50.5261 37.9535 52.2496C38.1615 53.9731 38.2568 55.8698 38.3002 57.8273C38.3023 59.7736 38.3067 61.8278 38.3088 63.9518C38.272 66.0713 38.233 68.2606 38.194 70.4881C38.1355 72.7066 38.0748 74.9588 38.0142 77.2133C37.947 79.4498 37.8885 81.7156 38.0098 83.8171C38.0272 84.3098 38.1203 84.8971 38.155 85.1513C38.2742 85.4618 38.3218 85.5338 38.4323 85.7408C38.5472 85.9501 38.6815 86.1616 38.818 86.3776C39.3748 87.2371 40.0075 88.0853 40.6293 88.9043C43.1232 92.2118 45.6538 95.1728 47.775 97.7468C49.9157 100.305 51.7617 102.382 53.066 103.824C54.3573 105.28 55.1655 106.045 55.1655 106.045C55.1655 106.045 54.2728 105.388 52.8125 104.099C51.3608 102.807 49.3502 100.888 46.9777 98.5366C44.5987 96.1898 41.9207 93.3616 39.1647 90.1688C38.4865 89.3543 37.804 88.5286 37.1432 87.6061C36.9785 87.3743 36.8138 87.1381 36.6557 86.8793C36.4867 86.6228 36.2743 86.2088 36.1963 86.0108C35.9233 85.2053 35.8497 84.6923 35.7522 84.0758C35.4532 81.7426 35.4207 79.4746 35.3708 77.1931C35.347 72.6368 35.5008 68.1143 35.672 63.8776C35.7782 61.7603 35.8822 59.7128 35.9818 57.7711C36.114 55.8451 36.1552 54.0631 36.1335 52.4003C36.0555 49.1018 35.6157 46.3478 34.7317 44.6693C34.2962 43.8323 33.7913 43.2766 33.384 42.9796C32.9723 42.6803 32.6907 42.6308 32.6907 42.6308Z" fill="white"/>
<path d="M50.7152 93.6045C50.7152 93.6045 51.1442 94.1152 51.9589 94.833C52.7822 95.5732 54.0259 96.534 55.5295 97.677C57.044 98.8042 58.812 100.123 60.7057 101.538C62.6059 102.953 64.5884 104.53 66.5752 106.121C70.4947 109.354 74.2929 112.851 76.6805 116.023C77.2785 116.811 77.7899 117.569 78.1712 118.303C78.5785 119.011 78.8212 119.716 78.9664 120.303C79.0899 120.908 79.0379 121.399 78.9469 121.702C78.819 121.988 78.7519 122.139 78.7519 122.139C78.7519 122.139 78.7692 121.977 78.7995 121.678C78.7974 121.381 78.676 120.969 78.4529 120.494C78.1842 120.026 77.8137 119.504 77.3132 118.939C76.8235 118.37 76.1974 117.787 75.5235 117.144C74.1499 115.884 72.4534 114.5 70.6269 113.015C68.7895 111.532 66.8265 109.948 64.8635 108.364C62.9265 106.735 60.9657 105.122 59.1977 103.507C57.4167 101.907 55.8004 100.341 54.4917 98.9055C53.17 97.4857 52.1647 96.1852 51.5494 95.2065C51.2417 94.7115 51.025 94.311 50.908 94.032C50.7824 93.7507 50.7152 93.6045 50.7152 93.6045Z" fill="white"/>
<path d="M41.1406 48.6584C41.1406 48.6584 41.3118 51.3877 41.5653 55.4759C41.6259 56.4997 41.6953 57.6067 41.7148 58.7812C41.7408 59.9534 41.7993 61.1864 41.8036 62.4667C41.7776 65.0317 41.8188 67.743 41.6823 70.4812C41.4266 75.942 41.1666 81.4072 40.9738 85.5045C40.8849 87.5565 40.8416 89.2867 40.8199 90.504C40.8438 91.773 43.7233 93.6157 43.7233 93.6157L43.5976 92.1892C43.5976 92.1892 43.5413 91.548 43.4459 90.4297C43.3809 89.2552 43.3029 87.57 43.2488 85.5202C43.1513 81.4185 43.0213 75.9487 42.8956 70.479C42.8154 67.7497 42.6594 64.9979 42.5403 62.4374C42.4688 61.1572 42.3431 59.9174 42.2543 58.7452C42.1698 57.5707 42.0441 56.4659 41.9293 55.4467C41.4548 51.3719 41.1406 48.6584 41.1406 48.6584Z" fill="white"/>
<path d="M61.5918 93.285C61.5918 93.285 59.5465 88.218 54.6195 87.795C51.0185 87.489 51.3283 91.854 51.3283 91.854C51.3283 91.854 53.0898 95.751 58.8337 97.3013L61.5918 93.285Z" fill="white"/>
<path d="M61.5918 93.285C61.5918 93.285 57.2433 93.1838 58.8337 97.3013L61.5918 93.285Z" fill="white"/>
<mask id="mask0_28_9" style="mask-type:luminance" maskUnits="userSpaceOnUse" x="49" y="63" width="53" height="22">
<path d="M49.9634 63.36H101.504V84.7845H49.9634V63.36Z" fill="white"/>
</mask>
<g mask="url(#mask0_28_9)">
<path d="M50.089 63.4635L60.5518 84.7643L54.5437 67.7948C54.5437 67.7948 87.204 70.6455 101.448 84.7643C101.448 84.7643 96.2173 68.2223 50.089 63.4635Z" fill="white"/>
</g>
<path d="M66.885 55.6515V63.4635C90.3153 66.582 103.242 80.5005 103.242 80.5005C93.7972 63.1935 66.885 55.6515 66.885 55.6515Z" fill="white"/>
<mask id="mask1_28_9" style="mask-type:luminance" maskUnits="userSpaceOnUse" x="80" y="51" width="24" height="26">
<path d="M80.4266 51.5205H103.723V76.608H80.4266V51.5205Z" fill="white"/>
</mask>
<g mask="url(#mask1_28_9)">
<path d="M80.6542 51.5205V58.4348C95.5478 64.674 103.22 76.347 103.22 76.347C97.968 60.2078 80.6542 51.5205 80.6542 51.5205Z" fill="white"/>
</g>
<mask id="mask2_28_9" style="mask-type:luminance" maskUnits="userSpaceOnUse" x="106" y="63" width="53" height="22">
<path d="M106.496 63.36H158.08V84.7845H106.496V63.36Z" fill="white"/>
</mask>
<g mask="url(#mask2_28_9)">
<path d="M157.909 63.4635C111.781 68.2223 106.55 84.7643 106.55 84.7643C120.794 70.6455 153.454 67.7948 153.454 67.7948L147.446 84.7643L157.909 63.4635Z" fill="white"/>
</g>
<path d="M141.135 55.6515C141.135 55.6515 114.222 63.171 104.778 80.478C104.778 80.478 117.704 66.5595 141.135 63.441V55.6515Z" fill="white"/>
<mask id="mask3_28_9" style="mask-type:luminance" maskUnits="userSpaceOnUse" x="104" y="51" width="24" height="26">
<path d="M104.277 51.5205H127.573V76.608H104.277V51.5205Z" fill="white"/>
</mask>
<g mask="url(#mask3_28_9)">
<path d="M127.344 58.4348V51.5205C127.344 51.5205 110.03 60.2078 104.778 76.347C104.778 76.347 112.45 64.674 127.344 58.4348Z" fill="white"/>
</g>
</g>
<g filter="url(#filter3_d_28_9)">
<path d="M214.527 76L208.688 55.4336H208.512C208.564 55.9674 208.616 56.6901 208.668 57.6016C208.733 58.513 208.792 59.4961 208.844 60.5508C208.896 61.6055 208.922 62.6211 208.922 63.5977V76H202.086V47.4453H212.359L218.316 67.7188H218.473L224.312 47.4453H234.605V76H227.516V63.4805C227.516 62.582 227.529 61.6185 227.555 60.5898C227.594 59.5482 227.633 58.5716 227.672 57.6602C227.724 56.7357 227.77 56.0065 227.809 55.4727H227.633L221.871 76H214.527ZM251.109 53.4805C253.909 53.4805 256.096 54.1771 257.672 55.5703C259.247 56.9505 260.035 58.9232 260.035 61.4883V76H254.742L253.277 73.0703H253.121C252.496 73.8516 251.852 74.4896 251.188 74.9844C250.536 75.4661 249.788 75.8177 248.941 76.0391C248.095 76.2734 247.06 76.3906 245.836 76.3906C244.56 76.3906 243.414 76.1302 242.398 75.6094C241.383 75.0885 240.582 74.3008 239.996 73.2461C239.41 72.1914 239.117 70.8568 239.117 69.2422C239.117 66.8724 239.938 65.1146 241.578 63.9688C243.219 62.8229 245.595 62.1784 248.707 62.0352L252.398 61.918V61.6055C252.398 60.6159 252.151 59.9128 251.656 59.4961C251.174 59.0794 250.523 58.8711 249.703 58.8711C248.831 58.8711 247.854 59.0273 246.773 59.3398C245.706 59.6393 244.632 60.0299 243.551 60.5117L241.344 55.4727C242.62 54.8216 244.065 54.3268 245.68 53.9883C247.294 53.6497 249.104 53.4805 251.109 53.4805ZM252.438 66.1172L250.68 66.1953C249.273 66.2474 248.284 66.4948 247.711 66.9375C247.151 67.3672 246.871 67.9857 246.871 68.793C246.871 69.5482 247.073 70.1081 247.477 70.4727C247.88 70.8242 248.414 71 249.078 71C250.003 71 250.79 70.707 251.441 70.1211C252.105 69.5352 252.438 68.7734 252.438 67.8359V66.1172ZM241.871 51.8398C241.949 50.6159 242.112 49.5807 242.359 48.7344C242.62 47.888 242.952 47.2044 243.355 46.6836C243.772 46.1497 244.267 45.7656 244.84 45.5312C245.426 45.2839 246.077 45.1602 246.793 45.1602C247.288 45.1602 247.815 45.2578 248.375 45.4531C248.935 45.6354 249.501 45.8503 250.074 46.0977C250.647 46.3451 251.207 46.5664 251.754 46.7617C252.314 46.944 252.848 47.0352 253.355 47.0352C253.59 47.0352 253.844 46.9245 254.117 46.7031C254.404 46.4818 254.612 45.9544 254.742 45.1211H258.316C258.147 47.5169 257.62 49.2292 256.734 50.2578C255.862 51.2865 254.788 51.8008 253.512 51.8008C252.926 51.8008 252.333 51.7096 251.734 51.5273C251.148 51.332 250.569 51.1107 249.996 50.8633C249.423 50.6159 248.87 50.401 248.336 50.2188C247.802 50.0234 247.288 49.9258 246.793 49.9258C246.546 49.9258 246.292 50.0299 246.031 50.2383C245.771 50.4466 245.556 50.9805 245.387 51.8398H241.871ZM286.363 64.8867C286.363 66.7357 286.109 68.3763 285.602 69.8086C285.094 71.2409 284.358 72.4453 283.395 73.4219C282.431 74.3984 281.266 75.1406 279.898 75.6484C278.531 76.1432 276.988 76.3906 275.27 76.3906C273.668 76.3906 272.197 76.1432 270.855 75.6484C269.527 75.1406 268.368 74.3984 267.379 73.4219C266.389 72.4453 265.621 71.2409 265.074 69.8086C264.54 68.3763 264.273 66.7357 264.273 64.8867C264.273 62.4388 264.716 60.3685 265.602 58.6758C266.5 56.9831 267.776 55.694 269.43 54.8086C271.096 53.9232 273.082 53.4805 275.387 53.4805C277.509 53.4805 279.397 53.9232 281.051 54.8086C282.704 55.694 284 56.9831 284.938 58.6758C285.888 60.3685 286.363 62.4388 286.363 64.8867ZM272.027 64.8867C272.027 66.1497 272.138 67.2174 272.359 68.0898C272.581 68.9492 272.932 69.6068 273.414 70.0625C273.909 70.5052 274.553 70.7266 275.348 70.7266C276.142 70.7266 276.773 70.5052 277.242 70.0625C277.711 69.6068 278.049 68.9492 278.258 68.0898C278.479 67.2174 278.59 66.1497 278.59 64.8867C278.59 63.6237 278.479 62.569 278.258 61.7227C278.049 60.8763 277.704 60.2383 277.223 59.8086C276.754 59.3789 276.116 59.1641 275.309 59.1641C274.15 59.1641 273.31 59.6458 272.789 60.6094C272.281 61.5729 272.027 62.9987 272.027 64.8867ZM307.184 69.2031C307.184 70.6094 306.871 71.8529 306.246 72.9336C305.621 74.0143 304.618 74.8607 303.238 75.4727C301.871 76.0846 300.068 76.3906 297.828 76.3906C296.253 76.3906 294.84 76.306 293.59 76.1367C292.353 75.9674 291.096 75.6419 289.82 75.1602V69.0469C291.214 69.6849 292.633 70.1471 294.078 70.4336C295.523 70.707 296.663 70.8438 297.496 70.8438C298.355 70.8438 298.98 70.7526 299.371 70.5703C299.775 70.375 299.977 70.0885 299.977 69.7109C299.977 69.3854 299.84 69.112 299.566 68.8906C299.306 68.6562 298.831 68.3893 298.141 68.0898C297.464 67.7904 296.507 67.3867 295.27 66.8789C294.046 66.3711 293.023 65.8177 292.203 65.2188C291.396 64.6198 290.79 63.9036 290.387 63.0703C289.983 62.237 289.781 61.2148 289.781 60.0039C289.781 57.8424 290.615 56.2148 292.281 55.1211C293.948 54.0273 296.155 53.4805 298.902 53.4805C300.361 53.4805 301.734 53.6432 303.023 53.9688C304.312 54.2812 305.647 54.7435 307.027 55.3555L304.938 60.2773C303.844 59.7826 302.737 59.3854 301.617 59.0859C300.497 58.7865 299.605 58.6367 298.941 58.6367C298.342 58.6367 297.88 58.7148 297.555 58.8711C297.229 59.0273 297.066 59.2552 297.066 59.5547C297.066 59.8281 297.177 60.069 297.398 60.2773C297.633 60.4857 298.069 60.7266 298.707 61C299.345 61.2734 300.276 61.6576 301.5 62.1523C302.789 62.6732 303.85 63.2331 304.684 63.832C305.53 64.418 306.155 65.1341 306.559 65.9805C306.975 66.8268 307.184 67.901 307.184 69.2031ZM214.449 133.609V124.449C214.449 123.902 214.469 123.362 214.508 122.828C214.547 122.281 214.605 121.741 214.684 121.207H214.449C213.928 122.079 213.199 122.828 212.262 123.453C211.337 124.078 210.12 124.391 208.609 124.391C206.253 124.391 204.339 123.421 202.867 121.48C201.409 119.54 200.68 116.702 200.68 112.965C200.68 110.465 201.018 108.362 201.695 106.656C202.372 104.951 203.316 103.661 204.527 102.789C205.738 101.917 207.138 101.48 208.727 101.48C210.263 101.48 211.507 101.78 212.457 102.379C213.421 102.978 214.189 103.72 214.762 104.605H214.918L215.484 101.871H222.086V133.609H214.449ZM211.715 118.473C212.548 118.473 213.206 118.303 213.688 117.965C214.169 117.613 214.514 117.092 214.723 116.402C214.931 115.699 215.035 114.82 215.035 113.766V112.848C215.035 111.116 214.801 109.775 214.332 108.824C213.863 107.874 212.952 107.398 211.598 107.398C210.543 107.398 209.749 107.88 209.215 108.844C208.694 109.807 208.434 111.22 208.434 113.082C208.434 115.009 208.701 116.389 209.234 117.223C209.781 118.056 210.608 118.473 211.715 118.473ZM248.902 101.871V124H243.141L242.184 121.246H241.734C241.279 121.988 240.699 122.594 239.996 123.062C239.306 123.518 238.538 123.85 237.691 124.059C236.845 124.28 235.966 124.391 235.055 124.391C233.609 124.391 232.301 124.111 231.129 123.551C229.97 122.991 229.046 122.112 228.355 120.914C227.678 119.716 227.34 118.173 227.34 116.285V101.871H234.977V113.961C234.977 115.393 235.178 116.487 235.582 117.242C235.999 117.984 236.676 118.355 237.613 118.355C238.577 118.355 239.319 118.095 239.84 117.574C240.374 117.053 240.745 116.285 240.953 115.27C241.161 114.254 241.266 113.017 241.266 111.559V101.871H248.902ZM264.137 101.48C266.285 101.48 268.141 101.858 269.703 102.613C271.266 103.355 272.47 104.475 273.316 105.973C274.163 107.47 274.586 109.345 274.586 111.598V114.996H260.934C260.999 116.155 261.428 117.105 262.223 117.848C263.03 118.59 264.215 118.961 265.777 118.961C267.158 118.961 268.421 118.824 269.566 118.551C270.725 118.277 271.917 117.854 273.141 117.281V122.77C272.073 123.329 270.908 123.74 269.645 124C268.382 124.26 266.786 124.391 264.859 124.391C262.633 124.391 260.641 123.993 258.883 123.199C257.125 122.405 255.738 121.174 254.723 119.508C253.72 117.841 253.219 115.699 253.219 113.082C253.219 110.426 253.674 108.245 254.586 106.539C255.497 104.82 256.773 103.551 258.414 102.73C260.055 101.897 261.962 101.48 264.137 101.48ZM264.41 106.676C263.512 106.676 262.757 106.962 262.145 107.535C261.546 108.095 261.194 108.98 261.09 110.191H267.652C267.639 109.54 267.509 108.948 267.262 108.414C267.014 107.88 266.65 107.457 266.168 107.145C265.699 106.832 265.113 106.676 264.41 106.676ZM219.039 172H202.086V143.445H219.039V149.637H209.801V154.129H218.355V160.32H209.801V165.711H219.039V172ZM230.465 172.391C228.186 172.391 226.311 171.421 224.84 169.48C223.368 167.54 222.633 164.702 222.633 160.965C222.633 157.189 223.388 154.331 224.898 152.391C226.409 150.451 228.362 149.48 230.758 149.48C231.747 149.48 232.6 149.624 233.316 149.91C234.033 150.197 234.651 150.587 235.172 151.082C235.706 151.564 236.168 152.111 236.559 152.723H236.715C236.624 152.163 236.539 151.395 236.461 150.418C236.383 149.428 236.344 148.465 236.344 147.527V141.609H244.039V172H238.277L236.637 169.207H236.344C235.992 169.793 235.549 170.327 235.016 170.809C234.495 171.29 233.857 171.674 233.102 171.961C232.359 172.247 231.48 172.391 230.465 172.391ZM233.59 166.355C234.814 166.355 235.673 165.971 236.168 165.203C236.676 164.422 236.949 163.237 236.988 161.648V161.043C236.988 159.298 236.741 157.964 236.246 157.039C235.764 156.102 234.853 155.633 233.512 155.633C232.6 155.633 231.845 156.076 231.246 156.961C230.647 157.846 230.348 159.22 230.348 161.082C230.348 162.918 230.647 164.259 231.246 165.105C231.858 165.939 232.639 166.355 233.59 166.355ZM270.855 149.871V172H265.094L264.137 169.246H263.688C263.232 169.988 262.652 170.594 261.949 171.062C261.259 171.518 260.491 171.85 259.645 172.059C258.798 172.28 257.919 172.391 257.008 172.391C255.562 172.391 254.254 172.111 253.082 171.551C251.923 170.991 250.999 170.112 250.309 168.914C249.632 167.716 249.293 166.173 249.293 164.285V149.871H256.93V161.961C256.93 163.393 257.132 164.487 257.535 165.242C257.952 165.984 258.629 166.355 259.566 166.355C260.53 166.355 261.272 166.095 261.793 165.574C262.327 165.053 262.698 164.285 262.906 163.27C263.115 162.254 263.219 161.017 263.219 159.559V149.871H270.855ZM286.207 172.391C283.967 172.391 282.021 171.993 280.367 171.199C278.714 170.392 277.431 169.155 276.52 167.488C275.621 165.809 275.172 163.66 275.172 161.043C275.172 158.361 275.673 156.167 276.676 154.461C277.691 152.755 279.078 151.499 280.836 150.691C282.594 149.884 284.586 149.48 286.812 149.48C288.167 149.48 289.449 149.63 290.66 149.93C291.884 150.229 293.017 150.639 294.059 151.16L291.812 156.805C290.901 156.401 290.048 156.082 289.254 155.848C288.473 155.6 287.659 155.477 286.812 155.477C286.044 155.477 285.367 155.678 284.781 156.082C284.195 156.486 283.74 157.098 283.414 157.918C283.089 158.725 282.926 159.754 282.926 161.004C282.926 162.28 283.089 163.309 283.414 164.09C283.753 164.871 284.215 165.438 284.801 165.789C285.4 166.141 286.083 166.316 286.852 166.316C287.958 166.316 289.059 166.147 290.152 165.809C291.259 165.457 292.307 164.975 293.297 164.363V170.438C292.385 171.036 291.357 171.512 290.211 171.863C289.065 172.215 287.73 172.391 286.207 172.391ZM308.492 149.48C311.292 149.48 313.479 150.177 315.055 151.57C316.63 152.951 317.418 154.923 317.418 157.488V172H312.125L310.66 169.07H310.504C309.879 169.852 309.234 170.49 308.57 170.984C307.919 171.466 307.171 171.818 306.324 172.039C305.478 172.273 304.443 172.391 303.219 172.391C301.943 172.391 300.797 172.13 299.781 171.609C298.766 171.089 297.965 170.301 297.379 169.246C296.793 168.191 296.5 166.857 296.5 165.242C296.5 162.872 297.32 161.115 298.961 159.969C300.602 158.823 302.978 158.178 306.09 158.035L309.781 157.918V157.605C309.781 156.616 309.534 155.913 309.039 155.496C308.557 155.079 307.906 154.871 307.086 154.871C306.214 154.871 305.237 155.027 304.156 155.34C303.089 155.639 302.014 156.03 300.934 156.512L298.727 151.473C300.003 150.822 301.448 150.327 303.062 149.988C304.677 149.65 306.487 149.48 308.492 149.48ZM309.82 162.117L308.062 162.195C306.656 162.247 305.667 162.495 305.094 162.938C304.534 163.367 304.254 163.986 304.254 164.793C304.254 165.548 304.456 166.108 304.859 166.473C305.263 166.824 305.797 167 306.461 167C307.385 167 308.173 166.707 308.824 166.121C309.488 165.535 309.82 164.773 309.82 163.836V162.117ZM349.625 149.48C352.151 149.48 354.078 150.125 355.406 151.414C356.747 152.703 357.418 154.767 357.418 157.605V172H349.781V159.969C349.781 158.289 349.553 157.124 349.098 156.473C348.655 155.809 347.991 155.477 347.105 155.477C345.868 155.477 345.009 156.017 344.527 157.098C344.059 158.178 343.824 159.708 343.824 161.688V172H336.168V159.969C336.168 158.901 336.07 158.042 335.875 157.391C335.693 156.727 335.413 156.245 335.035 155.945C334.658 155.633 334.182 155.477 333.609 155.477C332.737 155.477 332.053 155.743 331.559 156.277C331.077 156.798 330.738 157.566 330.543 158.582C330.348 159.598 330.25 160.841 330.25 162.312V172H322.613V149.871H328.375L329.488 152.605H329.703C330.094 152.007 330.595 151.473 331.207 151.004C331.832 150.535 332.568 150.164 333.414 149.891C334.273 149.617 335.25 149.48 336.344 149.48C337.971 149.48 339.312 149.754 340.367 150.301C341.422 150.848 342.281 151.603 342.945 152.566H343.18C343.883 151.577 344.788 150.815 345.895 150.281C347.001 149.747 348.245 149.48 349.625 149.48Z" fill="url(#paint2_linear_28_9)"/>
</g>
<defs>
<filter id="filter0_d_28_9" x="-8" y="-4" width="224" height="232" filterUnits="userSpaceOnUse" color-interpolation-filters="sRGB">
<feFlood flood-opacity="0" result="BackgroundImageFix"/>
<feColorMatrix in="SourceAlpha" type="matrix" values="0 0 0 0 0 0 0 0 0 0 0 0 0 0 0 0 0 0 127 0" result="hardAlpha"/>
<feOffset dy="4"/>
<feGaussianBlur stdDeviation="4"/>
<feComposite in2="hardAlpha" operator="out"/>
<feColorMatrix type="matrix" values="0 0 0 0 1 0 0 0 0 1 0 0 0 0 1 0 0 0 1 0"/>
<feBlend mode="normal" in2="BackgroundImageFix" result="effect1_dropShadow_28_9"/>
<feBlend mode="normal" in="SourceGraphic" in2="effect1_dropShadow_28_9" result="shape"/>
</filter>
<filter id="filter1_d_28_9" x="104.642" y="38.339" width="79.856" height="136.913" filterUnits="userSpaceOnUse" color-interpolation-filters="sRGB">
<feFlood flood-opacity="0" result="BackgroundImageFix"/>
<feColorMatrix in="SourceAlpha" type="matrix" values="0 0 0 0 0 0 0 0 0 0 0 0 0 0 0 0 0 0 127 0" result="hardAlpha"/>
<feOffset dy="4"/>
<feGaussianBlur stdDeviation="1"/>
<feComposite in2="hardAlpha" operator="out"/>
<feColorMatrix type="matrix" values="0 0 0 0 1 0 0 0 0 1 0 0 0 0 1 0 0 0 0.4 0"/>
<feBlend mode="normal" in2="BackgroundImageFix" result="effect1_dropShadow_28_9"/>
<feBlend mode="normal" in="SourceGraphic" in2="effect1_dropShadow_28_9" result="shape"/>
</filter>
<filter id="filter2_d_28_9" x="23.4877" y="38.339" width="79.8578" height="136.913" filterUnits="userSpaceOnUse" color-interpolation-filters="sRGB">
<feFlood flood-opacity="0" result="BackgroundImageFix"/>
<feColorMatrix in="SourceAlpha" type="matrix" values="0 0 0 0 0 0 0 0 0 0 0 0 0 0 0 0 0 0 127 0" result="hardAlpha"/>
<feOffset dy="4"/>
<feGaussianBlur stdDeviation="1"/>
<feComposite in2="hardAlpha" operator="out"/>
<feColorMatrix type="matrix" values="0 0 0 0 1 0 0 0 0 1 0 0 0 0 1 0 0 0 0.4 0"/>
<feBlend mode="normal" in2="BackgroundImageFix" result="effect1_dropShadow_28_9"/>
<feBlend mode="normal" in="SourceGraphic" in2="effect1_dropShadow_28_9" result="shape"/>
</filter>
<filter id="filter3_d_28_9" x="198.68" y="45.1211" width="160.738" height="133.27" filterUnits="userSpaceOnUse" color-interpolation-filters="sRGB">
<feFlood flood-opacity="0" result="BackgroundImageFix"/>
<feColorMatrix in="SourceAlpha" type="matrix" values="0 0 0 0 0 0 0 0 0 0 0 0 0 0 0 0 0 0 127 0" result="hardAlpha"/>
<feOffset dy="4"/>
<feGaussianBlur stdDeviation="1"/>
<feComposite in2="hardAlpha" operator="out"/>
<feColorMatrix type="matrix" values="0 0 0 0 1 0 0 0 0 1 0 0 0 0 1 0 0 0 0.4 0"/>
<feBlend mode="normal" in2="BackgroundImageFix" result="effect1_dropShadow_28_9"/>
<feBlend mode="normal" in="SourceGraphic" in2="effect1_dropShadow_28_9" result="shape"/>
</filter>
<linearGradient id="paint0_linear_28_9" x1="144.57" y1="38.339" x2="144.57" y2="169.252" gradientUnits="userSpaceOnUse">
<stop stop-color="#FFF6EA"/>
<stop offset="1" stop-color="#757575"/>
</linearGradient>
<linearGradient id="paint1_linear_28_9" x1="63.4166" y1="38.339" x2="63.4166" y2="169.252" gradientUnits="userSpaceOnUse">
<stop stop-color="#FFF6EA"/>
<stop offset="1" stop-color="#757575"/>
</linearGradient>
<linearGradient id="paint2_linear_28_9" x1="343.5" y1="43" x2="358.5" y2="206" gradientUnits="userSpaceOnUse">
<stop offset="0.659875" stop-color="white"/>
<stop offset="1" stop-color="#999999"/>
</linearGradient>
</defs>
</svg>
