<svg width="24" height="24" viewBox="0 0 24 24" fill="none" xmlns="http://www.w3.org/2000/svg">
<g id="maki:arrow">
<path id="Vector" d="M10.7312 3.66878C10.4311 3.36882 10.0242 3.20032 9.59995 3.20032C9.17569 3.20032 8.7688 3.36882 8.46875 3.66878L1.26875 10.8688C0.968798 11.1688 0.800293 11.5757 0.800293 12C0.800293 12.4242 0.968798 12.8311 1.26875 13.1312L8.46875 20.3312C8.77051 20.6226 9.17468 20.7839 9.59419 20.7803C10.0137 20.7766 10.415 20.6083 10.7117 20.3117C11.0083 20.015 11.1766 19.6137 11.1802 19.1942C11.1839 18.7747 11.0226 18.3705 10.7312 18.0688L6.39995 13.6H21.6C22.0243 13.6 22.4313 13.4314 22.7313 13.1313C23.0314 12.8313 23.2 12.4243 23.2 12C23.2 11.5756 23.0314 11.1687 22.7313 10.8686C22.4313 10.5685 22.0243 10.4 21.6 10.4H6.39995L10.7312 5.93118C11.0311 5.63113 11.1996 5.22424 11.1996 4.79998C11.1996 4.37571 11.0311 3.96882 10.7312 3.66878Z" fill="black"/>
</g>
</svg>
