<svg width="208" height="216" viewBox="0 0 208 216" fill="none" xmlns="http://www.w3.org/2000/svg">
<g id="M&#195;&#163;os que Educam 1" filter="url(#filter0_d_28_10)">
<g id="Vector" filter="url(#filter1_d_28_10)">
<path d="M112.231 169.252C112.231 169.252 96.4253 124.9 117.973 107.442C127.344 99.855 137.432 94.4775 145.119 89.2283C147.461 87.6285 162.366 83.0903 157.272 93.6023C151.677 105.138 126.247 115.799 129.465 122.956C130.702 125.708 158.715 102.636 161.408 97.3013C163.477 93.2063 157.982 74.3558 161.178 58.8398C162.346 53.1653 163.477 49.2953 166.844 48.6585C166.844 48.6585 165.531 41.2605 169.453 38.952C171.747 37.5998 175.296 38.34 175.296 42.6308C175.296 42.6308 179.959 41.535 180.57 46.3095C181.421 52.947 184.32 95.274 180.787 102.434C165.62 133.139 113.607 157.322 112.231 169.252Z" fill="url(#paint0_linear_28_10)"/>
</g>
<path id="Vector_2" d="M175.296 42.6308C175.296 42.6308 175.013 42.6803 174.603 42.9796C174.196 43.2766 173.689 43.8323 173.255 44.6693C172.369 46.3478 171.932 49.1018 171.851 52.4003C171.832 54.0631 171.873 55.8451 172.005 57.7711C172.103 59.7128 172.207 61.7603 172.315 63.8776C172.484 68.1143 172.638 72.6368 172.612 77.1931C172.564 79.4746 172.534 81.7426 172.235 84.0758C172.137 84.6923 172.064 85.2053 171.789 86.0086C171.711 86.2088 171.498 86.6228 171.331 86.8793C171.171 87.1381 171.006 87.3743 170.842 87.6083C170.183 88.5286 169.501 89.3543 168.822 90.1688C166.064 93.3638 163.388 96.1898 161.009 98.5366C158.635 100.888 156.624 102.807 155.172 104.099C153.712 105.388 152.822 106.045 152.822 106.045C152.822 106.045 153.628 105.28 154.919 103.824C156.223 102.382 158.069 100.305 160.21 97.7468C162.331 95.1728 164.862 92.2118 167.356 88.9043C167.977 88.0853 168.61 87.2371 169.167 86.3776C169.306 86.1638 169.438 85.9501 169.555 85.7408C169.665 85.5316 169.711 85.4618 169.832 85.1513C169.865 84.8971 169.958 84.3098 169.977 83.8171C170.094 81.7156 170.038 79.4498 169.971 77.2133C169.912 74.9588 169.849 72.7066 169.791 70.4903C169.752 68.2606 169.713 66.0713 169.676 63.9518C169.68 61.8278 169.683 59.7736 169.685 57.8273C169.728 55.8698 169.823 53.9731 170.029 52.2518C170.307 50.5238 170.564 48.9398 171.069 47.5943C171.546 46.2488 172.111 45.1238 172.731 44.3071C173.338 43.4791 174.022 43.0088 174.516 42.8153C175.013 42.6106 175.296 42.6308 175.296 42.6308Z" fill="white"/>
<path id="Vector_3" d="M157.272 93.6023C157.272 93.6023 157.205 93.7508 157.079 94.032C156.962 94.311 156.745 94.7115 156.435 95.2065C155.822 96.1853 154.817 97.4858 153.495 98.9055C152.184 100.341 150.568 101.907 148.787 103.507C147.019 105.125 145.058 106.736 143.121 108.365C141.16 109.949 139.197 111.533 137.358 113.015C135.534 114.5 133.837 115.884 132.461 117.144C131.79 117.785 131.161 118.37 130.676 118.94C130.171 119.504 129.803 120.026 129.534 120.494C129.309 120.969 129.192 121.381 129.19 121.678C129.218 121.977 129.233 122.139 129.233 122.139C129.233 122.139 129.166 121.988 129.038 121.703C128.949 121.399 128.895 120.908 129.018 120.301C129.166 119.716 129.406 119.012 129.814 118.303C130.197 117.569 130.708 116.811 131.306 116.024C133.692 112.851 137.492 109.355 141.412 106.121C143.399 104.531 145.379 102.953 147.279 101.536C149.173 100.123 150.943 98.8043 152.457 97.677C153.963 96.534 155.205 95.5733 156.026 94.833C156.841 94.1153 157.272 93.6023 157.272 93.6023Z" fill="white"/>
<path id="Vector_4" d="M166.846 48.6584C166.846 48.6584 166.675 51.3877 166.424 55.4782C166.361 56.4997 166.294 57.6067 166.272 58.7812C166.246 59.9534 166.188 61.1864 166.183 62.4667C166.207 65.0317 166.166 67.743 166.303 70.4812C166.56 75.9442 166.818 81.4072 167.013 85.5045C167.102 87.5565 167.148 89.2845 167.165 90.504C167.143 91.773 164.266 93.6157 164.266 93.6157L164.392 92.1892C164.392 92.1892 164.446 91.548 164.543 90.4297C164.604 89.2552 164.684 87.57 164.738 85.5202C164.836 81.4185 164.964 75.9487 165.091 70.479C165.169 67.7497 165.328 64.9979 165.447 62.4374C165.516 61.1572 165.646 59.9174 165.733 58.7452C165.817 57.5707 165.941 56.4659 166.058 55.4467C166.532 51.3742 166.846 48.6584 166.846 48.6584Z" fill="white"/>
<path id="Vector_5" d="M146.395 93.285C146.395 93.285 148.441 88.2203 153.365 87.795C156.966 87.4868 156.659 91.854 156.659 91.854C156.659 91.854 154.899 95.751 149.153 97.3013L146.395 93.285Z" fill="white"/>
<path id="Vector_6" d="M146.395 93.285C146.395 93.285 150.742 93.186 149.153 97.3035L146.395 93.285Z" fill="white"/>
<g id="Vector_7" filter="url(#filter2_d_28_10)">
<path d="M95.7581 169.252C95.7581 169.252 111.562 124.9 90.0121 107.442C80.6456 99.855 70.5554 94.4775 62.8681 89.2283C60.5259 87.6285 45.6214 83.0903 50.7174 93.6023C56.3074 105.138 81.7397 115.799 78.5222 122.956C77.2851 125.708 49.2722 102.636 46.5791 97.3013C44.5121 93.2063 50.0046 74.3558 46.8087 58.8398C45.6387 53.1653 44.5121 49.2953 41.1407 48.6585C41.1407 48.6585 42.4537 41.2605 38.5364 38.952C36.2376 37.5998 32.6907 38.34 32.6907 42.6308C32.6907 42.6308 28.0281 41.535 27.4149 46.3073C26.5634 52.947 23.6644 95.274 27.2004 102.434C42.3671 133.139 94.3779 157.322 95.7581 169.252Z" fill="url(#paint1_linear_28_10)"/>
</g>
<path id="Vector_8" d="M32.6907 42.6308C32.6907 42.6308 32.9745 42.6106 33.4707 42.8153C33.9625 43.0088 34.6472 43.4791 35.256 44.3071C35.8757 45.1238 36.4412 46.2488 36.9178 47.5943C37.4205 48.9398 37.6783 50.5261 37.9535 52.2496C38.1615 53.9731 38.2568 55.8698 38.3002 57.8273C38.3023 59.7736 38.3067 61.8278 38.3088 63.9518C38.272 66.0713 38.233 68.2606 38.194 70.4881C38.1355 72.7066 38.0748 74.9588 38.0142 77.2133C37.947 79.4498 37.8885 81.7156 38.0098 83.8171C38.0272 84.3098 38.1203 84.8971 38.155 85.1513C38.2742 85.4618 38.3218 85.5338 38.4323 85.7408C38.5472 85.9501 38.6815 86.1616 38.818 86.3776C39.3748 87.2371 40.0075 88.0853 40.6293 88.9043C43.1232 92.2118 45.6538 95.1728 47.775 97.7468C49.9157 100.305 51.7617 102.382 53.066 103.824C54.3573 105.28 55.1655 106.045 55.1655 106.045C55.1655 106.045 54.2728 105.388 52.8125 104.099C51.3608 102.807 49.3502 100.888 46.9777 98.5366C44.5987 96.1898 41.9207 93.3616 39.1647 90.1688C38.4865 89.3543 37.804 88.5286 37.1432 87.6061C36.9785 87.3743 36.8138 87.1381 36.6557 86.8793C36.4867 86.6228 36.2743 86.2088 36.1963 86.0108C35.9233 85.2053 35.8497 84.6923 35.7522 84.0758C35.4532 81.7426 35.4207 79.4746 35.3708 77.1931C35.347 72.6368 35.5008 68.1143 35.672 63.8776C35.7782 61.7603 35.8822 59.7128 35.9818 57.7711C36.114 55.8451 36.1552 54.0631 36.1335 52.4003C36.0555 49.1018 35.6157 46.3478 34.7317 44.6693C34.2962 43.8323 33.7913 43.2766 33.384 42.9796C32.9723 42.6803 32.6907 42.6308 32.6907 42.6308Z" fill="white"/>
<path id="Vector_9" d="M50.7152 93.6045C50.7152 93.6045 51.1442 94.1152 51.9589 94.833C52.7822 95.5732 54.0259 96.534 55.5295 97.677C57.044 98.8042 58.812 100.123 60.7057 101.538C62.6059 102.953 64.5884 104.53 66.5752 106.121C70.4947 109.354 74.2929 112.851 76.6805 116.023C77.2785 116.811 77.7899 117.569 78.1712 118.303C78.5785 119.011 78.8212 119.716 78.9664 120.303C79.0899 120.908 79.0379 121.399 78.9469 121.702C78.819 121.988 78.7519 122.139 78.7519 122.139C78.7519 122.139 78.7692 121.977 78.7995 121.678C78.7974 121.381 78.676 120.969 78.4529 120.494C78.1842 120.026 77.8137 119.504 77.3132 118.939C76.8235 118.37 76.1974 117.787 75.5235 117.144C74.1499 115.884 72.4534 114.5 70.6269 113.015C68.7895 111.532 66.8265 109.948 64.8635 108.364C62.9265 106.735 60.9657 105.122 59.1977 103.507C57.4167 101.907 55.8004 100.341 54.4917 98.9055C53.17 97.4857 52.1647 96.1852 51.5494 95.2065C51.2417 94.7115 51.025 94.311 50.908 94.032C50.7824 93.7507 50.7152 93.6045 50.7152 93.6045Z" fill="white"/>
<path id="Vector_10" d="M41.1406 48.6584C41.1406 48.6584 41.3118 51.3877 41.5653 55.4759C41.6259 56.4997 41.6953 57.6067 41.7148 58.7812C41.7408 59.9534 41.7993 61.1864 41.8036 62.4667C41.7776 65.0317 41.8188 67.743 41.6823 70.4812C41.4266 75.942 41.1666 81.4072 40.9738 85.5045C40.8849 87.5565 40.8416 89.2867 40.8199 90.504C40.8438 91.773 43.7233 93.6157 43.7233 93.6157L43.5976 92.1892C43.5976 92.1892 43.5413 91.548 43.4459 90.4297C43.3809 89.2552 43.3029 87.57 43.2488 85.5202C43.1513 81.4185 43.0213 75.9487 42.8956 70.479C42.8154 67.7497 42.6594 64.9979 42.5403 62.4374C42.4688 61.1572 42.3431 59.9174 42.2543 58.7452C42.1698 57.5707 42.0441 56.4659 41.9293 55.4467C41.4548 51.3719 41.1406 48.6584 41.1406 48.6584Z" fill="white"/>
<path id="Vector_11" d="M61.5918 93.285C61.5918 93.285 59.5465 88.218 54.6195 87.795C51.0185 87.489 51.3283 91.854 51.3283 91.854C51.3283 91.854 53.0898 95.751 58.8337 97.3013L61.5918 93.285Z" fill="white"/>
<path id="Vector_12" d="M61.5918 93.285C61.5918 93.285 57.2433 93.1838 58.8337 97.3013L61.5918 93.285Z" fill="white"/>
<g id="Clip path group">
<mask id="mask0_28_10" style="mask-type:luminance" maskUnits="userSpaceOnUse" x="49" y="63" width="53" height="22">
<g id="1f674aec46">
<path id="Vector_13" d="M49.9634 63.36H101.504V84.7845H49.9634V63.36Z" fill="white"/>
</g>
</mask>
<g mask="url(#mask0_28_10)">
<g id="Group">
<path id="Vector_14" d="M50.089 63.4635L60.5518 84.7643L54.5437 67.7948C54.5437 67.7948 87.204 70.6455 101.448 84.7643C101.448 84.7643 96.2173 68.2223 50.089 63.4635Z" fill="white"/>
</g>
</g>
</g>
<path id="Vector_15" d="M66.885 55.6515V63.4635C90.3153 66.582 103.242 80.5005 103.242 80.5005C93.7972 63.1935 66.885 55.6515 66.885 55.6515Z" fill="white"/>
<g id="Clip path group_2">
<mask id="mask1_28_10" style="mask-type:luminance" maskUnits="userSpaceOnUse" x="80" y="51" width="24" height="26">
<g id="5800841602">
<path id="Vector_16" d="M80.4266 51.5205H103.723V76.608H80.4266V51.5205Z" fill="white"/>
</g>
</mask>
<g mask="url(#mask1_28_10)">
<g id="Group_2">
<path id="Vector_17" d="M80.6542 51.5205V58.4348C95.5478 64.674 103.22 76.347 103.22 76.347C97.968 60.2078 80.6542 51.5205 80.6542 51.5205Z" fill="white"/>
</g>
</g>
</g>
<g id="Clip path group_3">
<mask id="mask2_28_10" style="mask-type:luminance" maskUnits="userSpaceOnUse" x="106" y="63" width="53" height="22">
<g id="9a237b873f">
<path id="Vector_18" d="M106.496 63.36H158.08V84.7845H106.496V63.36Z" fill="white"/>
</g>
</mask>
<g mask="url(#mask2_28_10)">
<g id="Group_3">
<path id="Vector_19" d="M157.909 63.4635C111.781 68.2223 106.55 84.7643 106.55 84.7643C120.794 70.6455 153.454 67.7948 153.454 67.7948L147.446 84.7643L157.909 63.4635Z" fill="white"/>
</g>
</g>
</g>
<path id="Vector_20" d="M141.135 55.6515C141.135 55.6515 114.222 63.171 104.778 80.478C104.778 80.478 117.704 66.5595 141.135 63.441V55.6515Z" fill="white"/>
<g id="Clip path group_4">
<mask id="mask3_28_10" style="mask-type:luminance" maskUnits="userSpaceOnUse" x="104" y="51" width="24" height="26">
<g id="ce720bef5d">
<path id="Vector_21" d="M104.277 51.5205H127.573V76.608H104.277V51.5205Z" fill="white"/>
</g>
</mask>
<g mask="url(#mask3_28_10)">
<g id="Group_4">
<path id="Vector_22" d="M127.344 58.4348V51.5205C127.344 51.5205 110.03 60.2078 104.778 76.347C104.778 76.347 112.45 64.674 127.344 58.4348Z" fill="white"/>
</g>
</g>
</g>
</g>
<defs>
<filter id="filter0_d_28_10" x="-8" y="-4" width="224" height="232" filterUnits="userSpaceOnUse" color-interpolation-filters="sRGB">
<feFlood flood-opacity="0" result="BackgroundImageFix"/>
<feColorMatrix in="SourceAlpha" type="matrix" values="0 0 0 0 0 0 0 0 0 0 0 0 0 0 0 0 0 0 127 0" result="hardAlpha"/>
<feOffset dy="4"/>
<feGaussianBlur stdDeviation="4"/>
<feComposite in2="hardAlpha" operator="out"/>
<feColorMatrix type="matrix" values="0 0 0 0 1 0 0 0 0 1 0 0 0 0 1 0 0 0 1 0"/>
<feBlend mode="normal" in2="BackgroundImageFix" result="effect1_dropShadow_28_10"/>
<feBlend mode="normal" in="SourceGraphic" in2="effect1_dropShadow_28_10" result="shape"/>
</filter>
<filter id="filter1_d_28_10" x="104.642" y="38.339" width="79.856" height="136.913" filterUnits="userSpaceOnUse" color-interpolation-filters="sRGB">
<feFlood flood-opacity="0" result="BackgroundImageFix"/>
<feColorMatrix in="SourceAlpha" type="matrix" values="0 0 0 0 0 0 0 0 0 0 0 0 0 0 0 0 0 0 127 0" result="hardAlpha"/>
<feOffset dy="4"/>
<feGaussianBlur stdDeviation="1"/>
<feComposite in2="hardAlpha" operator="out"/>
<feColorMatrix type="matrix" values="0 0 0 0 1 0 0 0 0 1 0 0 0 0 1 0 0 0 0.4 0"/>
<feBlend mode="normal" in2="BackgroundImageFix" result="effect1_dropShadow_28_10"/>
<feBlend mode="normal" in="SourceGraphic" in2="effect1_dropShadow_28_10" result="shape"/>
</filter>
<filter id="filter2_d_28_10" x="23.4877" y="38.339" width="79.8578" height="136.913" filterUnits="userSpaceOnUse" color-interpolation-filters="sRGB">
<feFlood flood-opacity="0" result="BackgroundImageFix"/>
<feColorMatrix in="SourceAlpha" type="matrix" values="0 0 0 0 0 0 0 0 0 0 0 0 0 0 0 0 0 0 127 0" result="hardAlpha"/>
<feOffset dy="4"/>
<feGaussianBlur stdDeviation="1"/>
<feComposite in2="hardAlpha" operator="out"/>
<feColorMatrix type="matrix" values="0 0 0 0 1 0 0 0 0 1 0 0 0 0 1 0 0 0 0.4 0"/>
<feBlend mode="normal" in2="BackgroundImageFix" result="effect1_dropShadow_28_10"/>
<feBlend mode="normal" in="SourceGraphic" in2="effect1_dropShadow_28_10" result="shape"/>
</filter>
<linearGradient id="paint0_linear_28_10" x1="144.57" y1="38.339" x2="144.57" y2="169.252" gradientUnits="userSpaceOnUse">
<stop stop-color="#FFF6EA"/>
<stop offset="1" stop-color="#757575"/>
</linearGradient>
<linearGradient id="paint1_linear_28_10" x1="63.4166" y1="38.339" x2="63.4166" y2="169.252" gradientUnits="userSpaceOnUse">
<stop stop-color="#FFF6EA"/>
<stop offset="1" stop-color="#757575"/>
</linearGradient>
</defs>
</svg>
