<svg width="125" height="153" viewBox="0 0 125 153" fill="none" xmlns="http://www.w3.org/2000/svg">
<g id="fa6-solid:ear-deaf" clip-path="url(#clip0_3_380)">
<path id="Vector" d="M122.705 16.316L112.939 28.2692C109.888 32.0045 104.932 32.0045 101.88 28.2692C98.8281 24.5338 98.8281 18.4676 101.88 14.7322L111.645 2.77911C114.697 -0.956238 119.653 -0.956238 122.705 2.77911C125.757 6.51447 125.757 12.5807 122.705 16.316ZM44.5801 111.941L13.3301 150.191C10.2783 153.926 5.32226 153.926 2.27051 150.191C-0.78125 146.456 -0.78125 140.389 2.27051 136.654L33.5205 98.4041C36.5723 94.6688 41.5283 94.6688 44.5801 98.4041C47.6318 102.139 47.6318 108.206 44.5801 111.941ZM58.5937 38.25C44.5312 38.25 32.9346 51.2789 31.4209 67.9834C30.957 73.2428 27.0752 77.008 22.8027 76.4403C18.5303 75.8725 15.4297 71.1211 15.8936 65.8916C18.2617 39.5947 36.4746 19.125 58.5937 19.125C82.3242 19.125 101.562 42.6727 101.562 71.7188C101.562 85.4649 97.2412 97.9858 90.1855 107.369C87.2558 111.254 85.9375 114.78 85.9375 117.738V119.561C85.9375 138.059 73.706 153.03 58.5937 153.03C54.2724 153.03 50.7812 148.757 50.7812 143.467C50.7812 138.178 54.2724 133.905 58.5937 133.905C65.0635 133.905 70.3125 127.48 70.3125 119.561V117.738C70.3125 107.907 74.5605 99.9282 78.7109 94.4297C83.2031 88.4532 85.9375 80.5043 85.9375 71.7487C85.9375 53.2512 73.706 38.2799 58.5937 38.2799V38.25ZM58.5937 62.1563C54.2724 62.1563 50.7812 66.4295 50.7812 71.7188C50.7812 75.6932 48.1689 78.8907 44.9219 78.8907C41.6748 78.8907 39.0625 75.6932 39.0625 71.7188C39.0625 58.5106 47.8027 47.8125 58.5937 47.8125C69.3848 47.8125 78.125 58.5106 78.125 71.7188C78.125 75.6932 75.5127 78.8907 72.2656 78.8907C69.0185 78.8907 66.4062 75.6932 66.4062 71.7188C66.4062 66.4295 62.915 62.1563 58.5937 62.1563Z" fill="white"/>
</g>
<defs>
<clipPath id="clip0_3_380">
<rect width="125" height="153" fill="white"/>
</clipPath>
</defs>
</svg>
